%TF.GenerationSoftware,KiCad,Pcbnew,(6.0.4-0)*%
%TF.CreationDate,2022-04-22T16:48:50+08:00*%
%TF.ProjectId,esp32c3,65737033-3263-4332-9e6b-696361645f70,rev?*%
%TF.SameCoordinates,Original*%
%TF.FileFunction,Paste,Top*%
%TF.FilePolarity,Positive*%
%FSLAX46Y46*%
G04 Gerber Fmt 4.6, Leading zero omitted, Abs format (unit mm)*
G04 Created by KiCad (PCBNEW (6.0.4-0)) date 2022-04-22 16:48:50*
%MOMM*%
%LPD*%
G01*
G04 APERTURE LIST*
G04 Aperture macros list*
%AMRoundRect*
0 Rectangle with rounded corners*
0 $1 Rounding radius*
0 $2 $3 $4 $5 $6 $7 $8 $9 X,Y pos of 4 corners*
0 Add a 4 corners polygon primitive as box body*
4,1,4,$2,$3,$4,$5,$6,$7,$8,$9,$2,$3,0*
0 Add four circle primitives for the rounded corners*
1,1,$1+$1,$2,$3*
1,1,$1+$1,$4,$5*
1,1,$1+$1,$6,$7*
1,1,$1+$1,$8,$9*
0 Add four rect primitives between the rounded corners*
20,1,$1+$1,$2,$3,$4,$5,0*
20,1,$1+$1,$4,$5,$6,$7,0*
20,1,$1+$1,$6,$7,$8,$9,0*
20,1,$1+$1,$8,$9,$2,$3,0*%
G04 Aperture macros list end*
%ADD10RoundRect,0.237500X0.250000X0.237500X-0.250000X0.237500X-0.250000X-0.237500X0.250000X-0.237500X0*%
%ADD11R,0.900000X0.800000*%
%ADD12RoundRect,0.237500X-0.250000X-0.237500X0.250000X-0.237500X0.250000X0.237500X-0.250000X0.237500X0*%
%ADD13RoundRect,0.237500X0.237500X-0.250000X0.237500X0.250000X-0.237500X0.250000X-0.237500X-0.250000X0*%
%ADD14RoundRect,0.243750X-0.243750X-0.456250X0.243750X-0.456250X0.243750X0.456250X-0.243750X0.456250X0*%
%ADD15R,0.350000X0.375000*%
%ADD16R,0.375000X0.350000*%
%ADD17RoundRect,0.237500X-0.237500X0.250000X-0.237500X-0.250000X0.237500X-0.250000X0.237500X0.250000X0*%
%ADD18RoundRect,0.200000X0.200000X1.000000X-0.200000X1.000000X-0.200000X-1.000000X0.200000X-1.000000X0*%
%ADD19RoundRect,0.250000X0.650000X1.400000X-0.650000X1.400000X-0.650000X-1.400000X0.650000X-1.400000X0*%
%ADD20O,1.500000X0.650000*%
%ADD21R,1.500000X0.650000*%
%ADD22R,2.200000X1.700000*%
G04 APERTURE END LIST*
D10*
%TO.C,R4*%
X76604500Y-90424000D03*
X74779500Y-90424000D03*
%TD*%
D11*
%TO.C,U4*%
X73136000Y-94168000D03*
X73136000Y-92268000D03*
X71136000Y-93218000D03*
%TD*%
D12*
%TO.C,R2*%
X74929990Y-72898000D03*
X76754990Y-72898000D03*
%TD*%
D10*
%TO.C,R12*%
X49172500Y-84709000D03*
X47347500Y-84709000D03*
%TD*%
%TO.C,C5*%
X48791500Y-73025000D03*
X46966500Y-73025000D03*
%TD*%
D13*
%TO.C,R1*%
X55245000Y-87931000D03*
X55245000Y-86106000D03*
%TD*%
D12*
%TO.C,R8*%
X74929995Y-76708000D03*
X76754995Y-76708000D03*
%TD*%
D13*
%TO.C,C2*%
X50860000Y-72892500D03*
X50860000Y-71067500D03*
%TD*%
D12*
%TO.C,R7*%
X74929990Y-71247000D03*
X76754990Y-71247000D03*
%TD*%
D14*
%TO.C,D1*%
X74904990Y-74803000D03*
X76779990Y-74803000D03*
%TD*%
D12*
%TO.C,C4*%
X74779500Y-86995000D03*
X76604500Y-86995000D03*
%TD*%
D10*
%TO.C,C1*%
X48791500Y-71069987D03*
X46966500Y-71069987D03*
%TD*%
%TO.C,R11*%
X49172500Y-81153000D03*
X47347500Y-81153000D03*
%TD*%
%TO.C,R3*%
X76604500Y-88773000D03*
X74779500Y-88773000D03*
%TD*%
D12*
%TO.C,R5*%
X60174500Y-87376000D03*
X61999500Y-87376000D03*
%TD*%
D15*
%TO.C,U3*%
X50379997Y-77919496D03*
X50879997Y-77919496D03*
X51379997Y-77919496D03*
X51879997Y-77919496D03*
D16*
X51892497Y-77406996D03*
X51892497Y-76906996D03*
D15*
X51879997Y-76394496D03*
X51379997Y-76394496D03*
X50879997Y-76394496D03*
X50379997Y-76394496D03*
D16*
X50367497Y-76906996D03*
X50367497Y-77406996D03*
%TD*%
D17*
%TO.C,C7*%
X76581000Y-92305500D03*
X76581000Y-94130500D03*
%TD*%
D10*
%TO.C,R10*%
X49172500Y-79375000D03*
X47347500Y-79375000D03*
%TD*%
%TO.C,C8*%
X48791500Y-74980800D03*
X46966500Y-74980800D03*
%TD*%
D12*
%TO.C,R9*%
X74929995Y-78359000D03*
X76754995Y-78359000D03*
%TD*%
D10*
%TO.C,C6*%
X62023000Y-89408000D03*
X60198000Y-89408000D03*
%TD*%
D17*
%TO.C,C3*%
X57023000Y-86106000D03*
X57023000Y-87931000D03*
%TD*%
D10*
%TO.C,R6*%
X61999500Y-85471000D03*
X60174500Y-85471000D03*
%TD*%
%TO.C,C9*%
X48791500Y-77571600D03*
X46966500Y-77571600D03*
%TD*%
D18*
%TO.C,J1*%
X47994000Y-87674000D03*
X46494000Y-87674000D03*
D19*
X50594000Y-92724000D03*
X43894000Y-92724000D03*
%TD*%
D10*
%TO.C,R13*%
X49172500Y-82931000D03*
X47347500Y-82931000D03*
%TD*%
D20*
%TO.C,U2*%
X74016000Y-81848000D03*
D21*
X74016000Y-83118000D03*
X74016000Y-84388000D03*
X77216000Y-84388000D03*
X77216000Y-83118000D03*
X77216000Y-81848000D03*
%TD*%
D22*
%TO.C,SW1*%
X66405400Y-87604600D03*
X70805400Y-87604600D03*
%TD*%
M02*
