%TF.GenerationSoftware,KiCad,Pcbnew,(6.0.4-0)*%
%TF.CreationDate,2022-04-22T16:48:50+08:00*%
%TF.ProjectId,esp32c3,65737033-3263-4332-9e6b-696361645f70,rev?*%
%TF.SameCoordinates,Original*%
%TF.FileFunction,Legend,Top*%
%TF.FilePolarity,Positive*%
%FSLAX46Y46*%
G04 Gerber Fmt 4.6, Leading zero omitted, Abs format (unit mm)*
G04 Created by KiCad (PCBNEW (6.0.4-0)) date 2022-04-22 16:48:50*
%MOMM*%
%LPD*%
G01*
G04 APERTURE LIST*
%ADD10C,0.150000*%
%ADD11C,0.099200*%
%ADD12C,0.124600*%
%ADD13C,0.120000*%
%ADD14C,0.127000*%
%ADD15C,0.400000*%
G04 APERTURE END LIST*
D10*
%TO.C,R4*%
X72858333Y-90749380D02*
X72525000Y-90273190D01*
X72286904Y-90749380D02*
X72286904Y-89749380D01*
X72667857Y-89749380D01*
X72763095Y-89797000D01*
X72810714Y-89844619D01*
X72858333Y-89939857D01*
X72858333Y-90082714D01*
X72810714Y-90177952D01*
X72763095Y-90225571D01*
X72667857Y-90273190D01*
X72286904Y-90273190D01*
X73715476Y-90082714D02*
X73715476Y-90749380D01*
X73477380Y-89701761D02*
X73239285Y-90416047D01*
X73858333Y-90416047D01*
%TO.C,U4*%
X71374095Y-95170380D02*
X71374095Y-95979904D01*
X71421714Y-96075142D01*
X71469333Y-96122761D01*
X71564571Y-96170380D01*
X71755047Y-96170380D01*
X71850285Y-96122761D01*
X71897904Y-96075142D01*
X71945523Y-95979904D01*
X71945523Y-95170380D01*
X72850285Y-95503714D02*
X72850285Y-96170380D01*
X72612190Y-95122761D02*
X72374095Y-95837047D01*
X72993142Y-95837047D01*
%TO.C,R2*%
X73135823Y-73223380D02*
X72802490Y-72747190D01*
X72564394Y-73223380D02*
X72564394Y-72223380D01*
X72945347Y-72223380D01*
X73040585Y-72271000D01*
X73088204Y-72318619D01*
X73135823Y-72413857D01*
X73135823Y-72556714D01*
X73088204Y-72651952D01*
X73040585Y-72699571D01*
X72945347Y-72747190D01*
X72564394Y-72747190D01*
X73516775Y-72318619D02*
X73564394Y-72271000D01*
X73659632Y-72223380D01*
X73897728Y-72223380D01*
X73992966Y-72271000D01*
X74040585Y-72318619D01*
X74088204Y-72413857D01*
X74088204Y-72509095D01*
X74040585Y-72651952D01*
X73469156Y-73223380D01*
X74088204Y-73223380D01*
%TO.C,R12*%
X50665142Y-85161380D02*
X50331809Y-84685190D01*
X50093714Y-85161380D02*
X50093714Y-84161380D01*
X50474666Y-84161380D01*
X50569904Y-84209000D01*
X50617523Y-84256619D01*
X50665142Y-84351857D01*
X50665142Y-84494714D01*
X50617523Y-84589952D01*
X50569904Y-84637571D01*
X50474666Y-84685190D01*
X50093714Y-84685190D01*
X51617523Y-85161380D02*
X51046095Y-85161380D01*
X51331809Y-85161380D02*
X51331809Y-84161380D01*
X51236571Y-84304238D01*
X51141333Y-84399476D01*
X51046095Y-84447095D01*
X51998476Y-84256619D02*
X52046095Y-84209000D01*
X52141333Y-84161380D01*
X52379428Y-84161380D01*
X52474666Y-84209000D01*
X52522285Y-84256619D01*
X52569904Y-84351857D01*
X52569904Y-84447095D01*
X52522285Y-84589952D01*
X51950857Y-85161380D01*
X52569904Y-85161380D01*
D11*
%TO.C,C5*%
X45655666Y-73029428D02*
X45620142Y-73064952D01*
X45513571Y-73100476D01*
X45442523Y-73100476D01*
X45335952Y-73064952D01*
X45264904Y-72993904D01*
X45229380Y-72922857D01*
X45193857Y-72780761D01*
X45193857Y-72674190D01*
X45229380Y-72532095D01*
X45264904Y-72461047D01*
X45335952Y-72390000D01*
X45442523Y-72354476D01*
X45513571Y-72354476D01*
X45620142Y-72390000D01*
X45655666Y-72425523D01*
X46330619Y-72354476D02*
X45975380Y-72354476D01*
X45939857Y-72709714D01*
X45975380Y-72674190D01*
X46046428Y-72638666D01*
X46224047Y-72638666D01*
X46295095Y-72674190D01*
X46330619Y-72709714D01*
X46366142Y-72780761D01*
X46366142Y-72958380D01*
X46330619Y-73029428D01*
X46295095Y-73064952D01*
X46224047Y-73100476D01*
X46046428Y-73100476D01*
X45975380Y-73064952D01*
X45939857Y-73029428D01*
D10*
%TO.C,R1*%
X55773580Y-89879466D02*
X55297390Y-90212800D01*
X55773580Y-90450895D02*
X54773580Y-90450895D01*
X54773580Y-90069942D01*
X54821200Y-89974704D01*
X54868819Y-89927085D01*
X54964057Y-89879466D01*
X55106914Y-89879466D01*
X55202152Y-89927085D01*
X55249771Y-89974704D01*
X55297390Y-90069942D01*
X55297390Y-90450895D01*
X55773580Y-88927085D02*
X55773580Y-89498514D01*
X55773580Y-89212800D02*
X54773580Y-89212800D01*
X54916438Y-89308038D01*
X55011676Y-89403276D01*
X55059295Y-89498514D01*
%TO.C,R8*%
X73135828Y-77160380D02*
X72802495Y-76684190D01*
X72564399Y-77160380D02*
X72564399Y-76160380D01*
X72945352Y-76160380D01*
X73040590Y-76208000D01*
X73088209Y-76255619D01*
X73135828Y-76350857D01*
X73135828Y-76493714D01*
X73088209Y-76588952D01*
X73040590Y-76636571D01*
X72945352Y-76684190D01*
X72564399Y-76684190D01*
X73707256Y-76588952D02*
X73612018Y-76541333D01*
X73564399Y-76493714D01*
X73516780Y-76398476D01*
X73516780Y-76350857D01*
X73564399Y-76255619D01*
X73612018Y-76208000D01*
X73707256Y-76160380D01*
X73897733Y-76160380D01*
X73992971Y-76208000D01*
X74040590Y-76255619D01*
X74088209Y-76350857D01*
X74088209Y-76398476D01*
X74040590Y-76493714D01*
X73992971Y-76541333D01*
X73897733Y-76588952D01*
X73707256Y-76588952D01*
X73612018Y-76636571D01*
X73564399Y-76684190D01*
X73516780Y-76779428D01*
X73516780Y-76969904D01*
X73564399Y-77065142D01*
X73612018Y-77112761D01*
X73707256Y-77160380D01*
X73897733Y-77160380D01*
X73992971Y-77112761D01*
X74040590Y-77065142D01*
X74088209Y-76969904D01*
X74088209Y-76779428D01*
X74040590Y-76684190D01*
X73992971Y-76636571D01*
X73897733Y-76588952D01*
D11*
%TO.C,C2*%
X51655666Y-70426428D02*
X51620142Y-70461952D01*
X51513571Y-70497476D01*
X51442523Y-70497476D01*
X51335952Y-70461952D01*
X51264904Y-70390904D01*
X51229380Y-70319857D01*
X51193857Y-70177761D01*
X51193857Y-70071190D01*
X51229380Y-69929095D01*
X51264904Y-69858047D01*
X51335952Y-69787000D01*
X51442523Y-69751476D01*
X51513571Y-69751476D01*
X51620142Y-69787000D01*
X51655666Y-69822523D01*
X51939857Y-69822523D02*
X51975380Y-69787000D01*
X52046428Y-69751476D01*
X52224047Y-69751476D01*
X52295095Y-69787000D01*
X52330619Y-69822523D01*
X52366142Y-69893571D01*
X52366142Y-69964619D01*
X52330619Y-70071190D01*
X51904333Y-70497476D01*
X52366142Y-70497476D01*
D10*
%TO.C,R7*%
X73135823Y-71826380D02*
X72802490Y-71350190D01*
X72564394Y-71826380D02*
X72564394Y-70826380D01*
X72945347Y-70826380D01*
X73040585Y-70874000D01*
X73088204Y-70921619D01*
X73135823Y-71016857D01*
X73135823Y-71159714D01*
X73088204Y-71254952D01*
X73040585Y-71302571D01*
X72945347Y-71350190D01*
X72564394Y-71350190D01*
X73469156Y-70826380D02*
X74135823Y-70826380D01*
X73707251Y-71826380D01*
%TO.C,D1*%
X72564394Y-75128380D02*
X72564394Y-74128380D01*
X72802490Y-74128380D01*
X72945347Y-74176000D01*
X73040585Y-74271238D01*
X73088204Y-74366476D01*
X73135823Y-74556952D01*
X73135823Y-74699809D01*
X73088204Y-74890285D01*
X73040585Y-74985523D01*
X72945347Y-75080761D01*
X72802490Y-75128380D01*
X72564394Y-75128380D01*
X74088204Y-75128380D02*
X73516775Y-75128380D01*
X73802490Y-75128380D02*
X73802490Y-74128380D01*
X73707251Y-74271238D01*
X73612013Y-74366476D01*
X73516775Y-74414095D01*
%TO.C,C4*%
X72731333Y-87352142D02*
X72683714Y-87399761D01*
X72540857Y-87447380D01*
X72445619Y-87447380D01*
X72302761Y-87399761D01*
X72207523Y-87304523D01*
X72159904Y-87209285D01*
X72112285Y-87018809D01*
X72112285Y-86875952D01*
X72159904Y-86685476D01*
X72207523Y-86590238D01*
X72302761Y-86495000D01*
X72445619Y-86447380D01*
X72540857Y-86447380D01*
X72683714Y-86495000D01*
X72731333Y-86542619D01*
X73588476Y-86780714D02*
X73588476Y-87447380D01*
X73350380Y-86399761D02*
X73112285Y-87114047D01*
X73731333Y-87114047D01*
D11*
%TO.C,C1*%
X46825666Y-70356428D02*
X46790142Y-70391952D01*
X46683571Y-70427476D01*
X46612523Y-70427476D01*
X46505952Y-70391952D01*
X46434904Y-70320904D01*
X46399380Y-70249857D01*
X46363857Y-70107761D01*
X46363857Y-70001190D01*
X46399380Y-69859095D01*
X46434904Y-69788047D01*
X46505952Y-69717000D01*
X46612523Y-69681476D01*
X46683571Y-69681476D01*
X46790142Y-69717000D01*
X46825666Y-69752523D01*
X47536142Y-70427476D02*
X47109857Y-70427476D01*
X47323000Y-70427476D02*
X47323000Y-69681476D01*
X47251952Y-69788047D01*
X47180904Y-69859095D01*
X47109857Y-69894619D01*
D10*
%TO.C,R11*%
X50665142Y-81478380D02*
X50331809Y-81002190D01*
X50093714Y-81478380D02*
X50093714Y-80478380D01*
X50474666Y-80478380D01*
X50569904Y-80526000D01*
X50617523Y-80573619D01*
X50665142Y-80668857D01*
X50665142Y-80811714D01*
X50617523Y-80906952D01*
X50569904Y-80954571D01*
X50474666Y-81002190D01*
X50093714Y-81002190D01*
X51617523Y-81478380D02*
X51046095Y-81478380D01*
X51331809Y-81478380D02*
X51331809Y-80478380D01*
X51236571Y-80621238D01*
X51141333Y-80716476D01*
X51046095Y-80764095D01*
X52569904Y-81478380D02*
X51998476Y-81478380D01*
X52284190Y-81478380D02*
X52284190Y-80478380D01*
X52188952Y-80621238D01*
X52093714Y-80716476D01*
X51998476Y-80764095D01*
%TO.C,R3*%
X72858333Y-89225380D02*
X72525000Y-88749190D01*
X72286904Y-89225380D02*
X72286904Y-88225380D01*
X72667857Y-88225380D01*
X72763095Y-88273000D01*
X72810714Y-88320619D01*
X72858333Y-88415857D01*
X72858333Y-88558714D01*
X72810714Y-88653952D01*
X72763095Y-88701571D01*
X72667857Y-88749190D01*
X72286904Y-88749190D01*
X73191666Y-88225380D02*
X73810714Y-88225380D01*
X73477380Y-88606333D01*
X73620238Y-88606333D01*
X73715476Y-88653952D01*
X73763095Y-88701571D01*
X73810714Y-88796809D01*
X73810714Y-89034904D01*
X73763095Y-89130142D01*
X73715476Y-89177761D01*
X73620238Y-89225380D01*
X73334523Y-89225380D01*
X73239285Y-89177761D01*
X73191666Y-89130142D01*
%TO.C,R5*%
X58253333Y-87828380D02*
X57920000Y-87352190D01*
X57681904Y-87828380D02*
X57681904Y-86828380D01*
X58062857Y-86828380D01*
X58158095Y-86876000D01*
X58205714Y-86923619D01*
X58253333Y-87018857D01*
X58253333Y-87161714D01*
X58205714Y-87256952D01*
X58158095Y-87304571D01*
X58062857Y-87352190D01*
X57681904Y-87352190D01*
X59158095Y-86828380D02*
X58681904Y-86828380D01*
X58634285Y-87304571D01*
X58681904Y-87256952D01*
X58777142Y-87209333D01*
X59015238Y-87209333D01*
X59110476Y-87256952D01*
X59158095Y-87304571D01*
X59205714Y-87399809D01*
X59205714Y-87637904D01*
X59158095Y-87733142D01*
X59110476Y-87780761D01*
X59015238Y-87828380D01*
X58777142Y-87828380D01*
X58681904Y-87780761D01*
X58634285Y-87733142D01*
%TO.C,U1*%
X52578095Y-61682380D02*
X52578095Y-62491904D01*
X52625714Y-62587142D01*
X52673333Y-62634761D01*
X52768571Y-62682380D01*
X52959047Y-62682380D01*
X53054285Y-62634761D01*
X53101904Y-62587142D01*
X53149523Y-62491904D01*
X53149523Y-61682380D01*
X54149523Y-62682380D02*
X53578095Y-62682380D01*
X53863809Y-62682380D02*
X53863809Y-61682380D01*
X53768571Y-61825238D01*
X53673333Y-61920476D01*
X53578095Y-61968095D01*
D12*
%TO.C,U3*%
X51571473Y-75695376D02*
X52175377Y-75695376D01*
X52246425Y-75659853D01*
X52281949Y-75624329D01*
X52317473Y-75553281D01*
X52317473Y-75411186D01*
X52281949Y-75340138D01*
X52246425Y-75304615D01*
X52175377Y-75269091D01*
X51571473Y-75269091D01*
X51571473Y-74984900D02*
X51571473Y-74523091D01*
X51855663Y-74771757D01*
X51855663Y-74665186D01*
X51891187Y-74594138D01*
X51926711Y-74558615D01*
X51997758Y-74523091D01*
X52175377Y-74523091D01*
X52246425Y-74558615D01*
X52281949Y-74594138D01*
X52317473Y-74665186D01*
X52317473Y-74878329D01*
X52281949Y-74949376D01*
X52246425Y-74984900D01*
D10*
%TO.C,C7*%
X75287142Y-93234166D02*
X75334761Y-93281785D01*
X75382380Y-93424642D01*
X75382380Y-93519880D01*
X75334761Y-93662738D01*
X75239523Y-93757976D01*
X75144285Y-93805595D01*
X74953809Y-93853214D01*
X74810952Y-93853214D01*
X74620476Y-93805595D01*
X74525238Y-93757976D01*
X74430000Y-93662738D01*
X74382380Y-93519880D01*
X74382380Y-93424642D01*
X74430000Y-93281785D01*
X74477619Y-93234166D01*
X74382380Y-92900833D02*
X74382380Y-92234166D01*
X75382380Y-92662738D01*
%TO.C,R10*%
X50665142Y-79700380D02*
X50331809Y-79224190D01*
X50093714Y-79700380D02*
X50093714Y-78700380D01*
X50474666Y-78700380D01*
X50569904Y-78748000D01*
X50617523Y-78795619D01*
X50665142Y-78890857D01*
X50665142Y-79033714D01*
X50617523Y-79128952D01*
X50569904Y-79176571D01*
X50474666Y-79224190D01*
X50093714Y-79224190D01*
X51617523Y-79700380D02*
X51046095Y-79700380D01*
X51331809Y-79700380D02*
X51331809Y-78700380D01*
X51236571Y-78843238D01*
X51141333Y-78938476D01*
X51046095Y-78986095D01*
X52236571Y-78700380D02*
X52331809Y-78700380D01*
X52427047Y-78748000D01*
X52474666Y-78795619D01*
X52522285Y-78890857D01*
X52569904Y-79081333D01*
X52569904Y-79319428D01*
X52522285Y-79509904D01*
X52474666Y-79605142D01*
X52427047Y-79652761D01*
X52331809Y-79700380D01*
X52236571Y-79700380D01*
X52141333Y-79652761D01*
X52093714Y-79605142D01*
X52046095Y-79509904D01*
X51998476Y-79319428D01*
X51998476Y-79081333D01*
X52046095Y-78890857D01*
X52093714Y-78795619D01*
X52141333Y-78748000D01*
X52236571Y-78700380D01*
D11*
%TO.C,C8*%
X49745666Y-74152428D02*
X49710142Y-74187952D01*
X49603571Y-74223476D01*
X49532523Y-74223476D01*
X49425952Y-74187952D01*
X49354904Y-74116904D01*
X49319380Y-74045857D01*
X49283857Y-73903761D01*
X49283857Y-73797190D01*
X49319380Y-73655095D01*
X49354904Y-73584047D01*
X49425952Y-73513000D01*
X49532523Y-73477476D01*
X49603571Y-73477476D01*
X49710142Y-73513000D01*
X49745666Y-73548523D01*
X50171952Y-73797190D02*
X50100904Y-73761666D01*
X50065380Y-73726142D01*
X50029857Y-73655095D01*
X50029857Y-73619571D01*
X50065380Y-73548523D01*
X50100904Y-73513000D01*
X50171952Y-73477476D01*
X50314047Y-73477476D01*
X50385095Y-73513000D01*
X50420619Y-73548523D01*
X50456142Y-73619571D01*
X50456142Y-73655095D01*
X50420619Y-73726142D01*
X50385095Y-73761666D01*
X50314047Y-73797190D01*
X50171952Y-73797190D01*
X50100904Y-73832714D01*
X50065380Y-73868238D01*
X50029857Y-73939285D01*
X50029857Y-74081380D01*
X50065380Y-74152428D01*
X50100904Y-74187952D01*
X50171952Y-74223476D01*
X50314047Y-74223476D01*
X50385095Y-74187952D01*
X50420619Y-74152428D01*
X50456142Y-74081380D01*
X50456142Y-73939285D01*
X50420619Y-73868238D01*
X50385095Y-73832714D01*
X50314047Y-73797190D01*
D10*
%TO.C,R9*%
X73112328Y-78938380D02*
X72778995Y-78462190D01*
X72540899Y-78938380D02*
X72540899Y-77938380D01*
X72921852Y-77938380D01*
X73017090Y-77986000D01*
X73064709Y-78033619D01*
X73112328Y-78128857D01*
X73112328Y-78271714D01*
X73064709Y-78366952D01*
X73017090Y-78414571D01*
X72921852Y-78462190D01*
X72540899Y-78462190D01*
X73588518Y-78938380D02*
X73778995Y-78938380D01*
X73874233Y-78890761D01*
X73921852Y-78843142D01*
X74017090Y-78700285D01*
X74064709Y-78509809D01*
X74064709Y-78128857D01*
X74017090Y-78033619D01*
X73969471Y-77986000D01*
X73874233Y-77938380D01*
X73683756Y-77938380D01*
X73588518Y-77986000D01*
X73540899Y-78033619D01*
X73493280Y-78128857D01*
X73493280Y-78366952D01*
X73540899Y-78462190D01*
X73588518Y-78509809D01*
X73683756Y-78557428D01*
X73874233Y-78557428D01*
X73969471Y-78509809D01*
X74017090Y-78462190D01*
X74064709Y-78366952D01*
%TO.C,C6*%
X58278733Y-89714342D02*
X58231114Y-89761961D01*
X58088257Y-89809580D01*
X57993019Y-89809580D01*
X57850161Y-89761961D01*
X57754923Y-89666723D01*
X57707304Y-89571485D01*
X57659685Y-89381009D01*
X57659685Y-89238152D01*
X57707304Y-89047676D01*
X57754923Y-88952438D01*
X57850161Y-88857200D01*
X57993019Y-88809580D01*
X58088257Y-88809580D01*
X58231114Y-88857200D01*
X58278733Y-88904819D01*
X59135876Y-88809580D02*
X58945400Y-88809580D01*
X58850161Y-88857200D01*
X58802542Y-88904819D01*
X58707304Y-89047676D01*
X58659685Y-89238152D01*
X58659685Y-89619104D01*
X58707304Y-89714342D01*
X58754923Y-89761961D01*
X58850161Y-89809580D01*
X59040638Y-89809580D01*
X59135876Y-89761961D01*
X59183495Y-89714342D01*
X59231114Y-89619104D01*
X59231114Y-89381009D01*
X59183495Y-89285771D01*
X59135876Y-89238152D01*
X59040638Y-89190533D01*
X58850161Y-89190533D01*
X58754923Y-89238152D01*
X58707304Y-89285771D01*
X58659685Y-89381009D01*
%TO.C,J3*%
X43862666Y-84415380D02*
X43862666Y-85129666D01*
X43815047Y-85272523D01*
X43719809Y-85367761D01*
X43576952Y-85415380D01*
X43481714Y-85415380D01*
X44243619Y-84415380D02*
X44862666Y-84415380D01*
X44529333Y-84796333D01*
X44672190Y-84796333D01*
X44767428Y-84843952D01*
X44815047Y-84891571D01*
X44862666Y-84986809D01*
X44862666Y-85224904D01*
X44815047Y-85320142D01*
X44767428Y-85367761D01*
X44672190Y-85415380D01*
X44386476Y-85415380D01*
X44291238Y-85367761D01*
X44243619Y-85320142D01*
%TO.C,C3*%
X57253142Y-89955666D02*
X57300761Y-90003285D01*
X57348380Y-90146142D01*
X57348380Y-90241380D01*
X57300761Y-90384238D01*
X57205523Y-90479476D01*
X57110285Y-90527095D01*
X56919809Y-90574714D01*
X56776952Y-90574714D01*
X56586476Y-90527095D01*
X56491238Y-90479476D01*
X56396000Y-90384238D01*
X56348380Y-90241380D01*
X56348380Y-90146142D01*
X56396000Y-90003285D01*
X56443619Y-89955666D01*
X56348380Y-89622333D02*
X56348380Y-89003285D01*
X56729333Y-89336619D01*
X56729333Y-89193761D01*
X56776952Y-89098523D01*
X56824571Y-89050904D01*
X56919809Y-89003285D01*
X57157904Y-89003285D01*
X57253142Y-89050904D01*
X57300761Y-89098523D01*
X57348380Y-89193761D01*
X57348380Y-89479476D01*
X57300761Y-89574714D01*
X57253142Y-89622333D01*
%TO.C,R6*%
X58253333Y-85669380D02*
X57920000Y-85193190D01*
X57681904Y-85669380D02*
X57681904Y-84669380D01*
X58062857Y-84669380D01*
X58158095Y-84717000D01*
X58205714Y-84764619D01*
X58253333Y-84859857D01*
X58253333Y-85002714D01*
X58205714Y-85097952D01*
X58158095Y-85145571D01*
X58062857Y-85193190D01*
X57681904Y-85193190D01*
X59110476Y-84669380D02*
X58920000Y-84669380D01*
X58824761Y-84717000D01*
X58777142Y-84764619D01*
X58681904Y-84907476D01*
X58634285Y-85097952D01*
X58634285Y-85478904D01*
X58681904Y-85574142D01*
X58729523Y-85621761D01*
X58824761Y-85669380D01*
X59015238Y-85669380D01*
X59110476Y-85621761D01*
X59158095Y-85574142D01*
X59205714Y-85478904D01*
X59205714Y-85240809D01*
X59158095Y-85145571D01*
X59110476Y-85097952D01*
X59015238Y-85050333D01*
X58824761Y-85050333D01*
X58729523Y-85097952D01*
X58681904Y-85145571D01*
X58634285Y-85240809D01*
%TO.C,J2*%
X53057466Y-90155780D02*
X53057466Y-90870066D01*
X53009847Y-91012923D01*
X52914609Y-91108161D01*
X52771752Y-91155780D01*
X52676514Y-91155780D01*
X53486038Y-90251019D02*
X53533657Y-90203400D01*
X53628895Y-90155780D01*
X53866990Y-90155780D01*
X53962228Y-90203400D01*
X54009847Y-90251019D01*
X54057466Y-90346257D01*
X54057466Y-90441495D01*
X54009847Y-90584352D01*
X53438419Y-91155780D01*
X54057466Y-91155780D01*
D11*
%TO.C,C9*%
X46382171Y-76596428D02*
X46346647Y-76631952D01*
X46240076Y-76667476D01*
X46169028Y-76667476D01*
X46062457Y-76631952D01*
X45991409Y-76560904D01*
X45955885Y-76489857D01*
X45920362Y-76347761D01*
X45920362Y-76241190D01*
X45955885Y-76099095D01*
X45991409Y-76028047D01*
X46062457Y-75957000D01*
X46169028Y-75921476D01*
X46240076Y-75921476D01*
X46346647Y-75957000D01*
X46382171Y-75992523D01*
X46737409Y-76667476D02*
X46879505Y-76667476D01*
X46950552Y-76631952D01*
X46986076Y-76596428D01*
X47057124Y-76489857D01*
X47092647Y-76347761D01*
X47092647Y-76063571D01*
X47057124Y-75992523D01*
X47021600Y-75957000D01*
X46950552Y-75921476D01*
X46808457Y-75921476D01*
X46737409Y-75957000D01*
X46701885Y-75992523D01*
X46666362Y-76063571D01*
X46666362Y-76241190D01*
X46701885Y-76312238D01*
X46737409Y-76347761D01*
X46808457Y-76383285D01*
X46950552Y-76383285D01*
X47021600Y-76347761D01*
X47057124Y-76312238D01*
X47092647Y-76241190D01*
D10*
%TO.C,J1*%
X46910666Y-91400380D02*
X46910666Y-92114666D01*
X46863047Y-92257523D01*
X46767809Y-92352761D01*
X46624952Y-92400380D01*
X46529714Y-92400380D01*
X47910666Y-92400380D02*
X47339238Y-92400380D01*
X47624952Y-92400380D02*
X47624952Y-91400380D01*
X47529714Y-91543238D01*
X47434476Y-91638476D01*
X47339238Y-91686095D01*
%TO.C,R13*%
X50665142Y-83383380D02*
X50331809Y-82907190D01*
X50093714Y-83383380D02*
X50093714Y-82383380D01*
X50474666Y-82383380D01*
X50569904Y-82431000D01*
X50617523Y-82478619D01*
X50665142Y-82573857D01*
X50665142Y-82716714D01*
X50617523Y-82811952D01*
X50569904Y-82859571D01*
X50474666Y-82907190D01*
X50093714Y-82907190D01*
X51617523Y-83383380D02*
X51046095Y-83383380D01*
X51331809Y-83383380D02*
X51331809Y-82383380D01*
X51236571Y-82526238D01*
X51141333Y-82621476D01*
X51046095Y-82669095D01*
X51950857Y-82383380D02*
X52569904Y-82383380D01*
X52236571Y-82764333D01*
X52379428Y-82764333D01*
X52474666Y-82811952D01*
X52522285Y-82859571D01*
X52569904Y-82954809D01*
X52569904Y-83192904D01*
X52522285Y-83288142D01*
X52474666Y-83335761D01*
X52379428Y-83383380D01*
X52093714Y-83383380D01*
X51998476Y-83335761D01*
X51950857Y-83288142D01*
%TO.C,U2*%
X74723085Y-79208380D02*
X74723085Y-80017904D01*
X74770704Y-80113142D01*
X74818323Y-80160761D01*
X74913561Y-80208380D01*
X75104037Y-80208380D01*
X75199275Y-80160761D01*
X75246894Y-80113142D01*
X75294513Y-80017904D01*
X75294513Y-79208380D01*
X75723085Y-79303619D02*
X75770704Y-79256000D01*
X75865942Y-79208380D01*
X76104037Y-79208380D01*
X76199275Y-79256000D01*
X76246894Y-79303619D01*
X76294513Y-79398857D01*
X76294513Y-79494095D01*
X76246894Y-79636952D01*
X75675466Y-80208380D01*
X76294513Y-80208380D01*
%TO.C,SW1*%
X67145066Y-90422361D02*
X67287923Y-90469980D01*
X67526019Y-90469980D01*
X67621257Y-90422361D01*
X67668876Y-90374742D01*
X67716495Y-90279504D01*
X67716495Y-90184266D01*
X67668876Y-90089028D01*
X67621257Y-90041409D01*
X67526019Y-89993790D01*
X67335542Y-89946171D01*
X67240304Y-89898552D01*
X67192685Y-89850933D01*
X67145066Y-89755695D01*
X67145066Y-89660457D01*
X67192685Y-89565219D01*
X67240304Y-89517600D01*
X67335542Y-89469980D01*
X67573638Y-89469980D01*
X67716495Y-89517600D01*
X68049828Y-89469980D02*
X68287923Y-90469980D01*
X68478400Y-89755695D01*
X68668876Y-90469980D01*
X68906971Y-89469980D01*
X69811733Y-90469980D02*
X69240304Y-90469980D01*
X69526019Y-90469980D02*
X69526019Y-89469980D01*
X69430780Y-89612838D01*
X69335542Y-89708076D01*
X69240304Y-89755695D01*
D13*
%TO.C,R4*%
X75946724Y-89901500D02*
X75437276Y-89901500D01*
X75946724Y-90946500D02*
X75437276Y-90946500D01*
%TO.C,U4*%
X71376000Y-91638000D02*
X71376000Y-92568000D01*
X71376000Y-94798000D02*
X71376000Y-93868000D01*
X71376000Y-94798000D02*
X73536000Y-94798000D01*
X71376000Y-91638000D02*
X72836000Y-91638000D01*
%TO.C,R2*%
X75587766Y-72375500D02*
X76097214Y-72375500D01*
X75587766Y-73420500D02*
X76097214Y-73420500D01*
%TO.C,R12*%
X48514724Y-84186500D02*
X48005276Y-84186500D01*
X48514724Y-85231500D02*
X48005276Y-85231500D01*
%TO.C,C5*%
X48133724Y-73547500D02*
X47624276Y-73547500D01*
X48133724Y-72502500D02*
X47624276Y-72502500D01*
%TO.C,R1*%
X55767500Y-87273224D02*
X55767500Y-86763776D01*
X54722500Y-87273224D02*
X54722500Y-86763776D01*
%TO.C,R8*%
X75587771Y-76185500D02*
X76097219Y-76185500D01*
X75587771Y-77230500D02*
X76097219Y-77230500D01*
%TO.C,C2*%
X50337500Y-72234724D02*
X50337500Y-71725276D01*
X51382500Y-72234724D02*
X51382500Y-71725276D01*
%TO.C,R7*%
X75587766Y-70724500D02*
X76097214Y-70724500D01*
X75587766Y-71769500D02*
X76097214Y-71769500D01*
%TO.C,D1*%
X74157490Y-73843000D02*
X74157490Y-75763000D01*
X76842490Y-73843000D02*
X74157490Y-73843000D01*
X74157490Y-75763000D02*
X76842490Y-75763000D01*
%TO.C,C4*%
X75437276Y-87517500D02*
X75946724Y-87517500D01*
X75437276Y-86472500D02*
X75946724Y-86472500D01*
%TO.C,C1*%
X48133724Y-71592487D02*
X47624276Y-71592487D01*
X48133724Y-70547487D02*
X47624276Y-70547487D01*
%TO.C,R11*%
X48514724Y-81675500D02*
X48005276Y-81675500D01*
X48514724Y-80630500D02*
X48005276Y-80630500D01*
%TO.C,R3*%
X75946724Y-88250500D02*
X75437276Y-88250500D01*
X75946724Y-89295500D02*
X75437276Y-89295500D01*
%TO.C,R5*%
X60832276Y-86853500D02*
X61341724Y-86853500D01*
X60832276Y-87898500D02*
X61341724Y-87898500D01*
D14*
%TO.C,U1*%
X71500000Y-63970000D02*
X71500000Y-70330000D01*
X53500000Y-83970000D02*
X71500000Y-83970000D01*
X53500000Y-63970000D02*
X53500000Y-70330000D01*
X53500000Y-63970000D02*
X71500000Y-63970000D01*
D15*
X52250000Y-71070000D02*
G75*
G03*
X52250000Y-71070000I-50000J0D01*
G01*
D13*
%TO.C,U3*%
X52229997Y-78256996D02*
X51729997Y-78256996D01*
X50529997Y-76056996D02*
X50529997Y-76056996D01*
X52229997Y-76056996D02*
X52229997Y-76556996D01*
X50029997Y-78256996D02*
X50029997Y-78256996D01*
X51729997Y-76056996D02*
X52229997Y-76056996D01*
X50029997Y-76056996D02*
X50529997Y-76056996D01*
X50029997Y-77756996D02*
X50029997Y-78256996D01*
X50029997Y-76556996D02*
X50029997Y-76056996D01*
X51729997Y-78256996D02*
X51729997Y-78256996D01*
X52229997Y-76556996D02*
X52229997Y-76556996D01*
X52229997Y-77756996D02*
X52229997Y-78256996D01*
%TO.C,C7*%
X77103500Y-92963276D02*
X77103500Y-93472724D01*
X76058500Y-92963276D02*
X76058500Y-93472724D01*
%TO.C,R10*%
X48514724Y-79897500D02*
X48005276Y-79897500D01*
X48514724Y-78852500D02*
X48005276Y-78852500D01*
%TO.C,C8*%
X48133724Y-75503300D02*
X47624276Y-75503300D01*
X48133724Y-74458300D02*
X47624276Y-74458300D01*
%TO.C,R9*%
X75587771Y-77836500D02*
X76097219Y-77836500D01*
X75587771Y-78881500D02*
X76097219Y-78881500D01*
%TO.C,C6*%
X61365224Y-89930500D02*
X60855776Y-89930500D01*
X61365224Y-88885500D02*
X60855776Y-88885500D01*
%TO.C,J3*%
X42891000Y-73406000D02*
X45551000Y-73406000D01*
X45551000Y-70806000D02*
X45551000Y-72136000D01*
X45551000Y-73406000D02*
X45551000Y-83626000D01*
X42891000Y-73406000D02*
X42891000Y-83626000D01*
X44221000Y-70806000D02*
X45551000Y-70806000D01*
X42891000Y-83626000D02*
X45551000Y-83626000D01*
%TO.C,C3*%
X56500500Y-86763776D02*
X56500500Y-87273224D01*
X57545500Y-86763776D02*
X57545500Y-87273224D01*
%TO.C,R6*%
X61341724Y-85993500D02*
X60832276Y-85993500D01*
X61341724Y-84948500D02*
X60832276Y-84948500D01*
%TO.C,J2*%
X53178000Y-91863000D02*
X54508000Y-91863000D01*
X55778000Y-91863000D02*
X68538000Y-91863000D01*
X53178000Y-93193000D02*
X53178000Y-91863000D01*
X55778000Y-94523000D02*
X68538000Y-94523000D01*
X68538000Y-94523000D02*
X68538000Y-91863000D01*
X55778000Y-94523000D02*
X55778000Y-91863000D01*
%TO.C,C9*%
X48133724Y-77049100D02*
X47624276Y-77049100D01*
X48133724Y-78094100D02*
X47624276Y-78094100D01*
%TO.C,J1*%
X49434000Y-94084000D02*
X45054000Y-94084000D01*
X51104000Y-88064000D02*
X48654000Y-88064000D01*
X48654000Y-88064000D02*
X48654000Y-86474000D01*
X43384000Y-88064000D02*
X45834000Y-88064000D01*
X51104000Y-90814000D02*
X51104000Y-88064000D01*
X43384000Y-90814000D02*
X43384000Y-88064000D01*
%TO.C,R13*%
X48514724Y-82408500D02*
X48005276Y-82408500D01*
X48514724Y-83453500D02*
X48005276Y-83453500D01*
D10*
%TO.C,U2*%
X73616000Y-85618000D02*
X73616000Y-80618000D01*
X73616000Y-80618000D02*
X77616000Y-80618000D01*
X77616000Y-80618000D02*
X77616000Y-85618000D01*
X77616000Y-85618000D02*
X73616000Y-85618000D01*
X74239607Y-81018000D02*
G75*
G03*
X74239607Y-81018000I-223607J0D01*
G01*
D13*
%TO.C,SW1*%
X70255400Y-89004600D02*
X70255400Y-88704600D01*
X66955400Y-86504600D02*
X66955400Y-86204600D01*
X66955400Y-89004600D02*
X70255400Y-89004600D01*
X66955400Y-88704600D02*
X66955400Y-89004600D01*
X66955400Y-86204600D02*
X70255400Y-86204600D01*
X70255400Y-86204600D02*
X70255400Y-86504600D01*
%TD*%
M02*
