%TF.GenerationSoftware,KiCad,Pcbnew,(6.0.4-0)*%
%TF.CreationDate,2022-04-22T16:48:50+08:00*%
%TF.ProjectId,esp32c3,65737033-3263-4332-9e6b-696361645f70,rev?*%
%TF.SameCoordinates,Original*%
%TF.FileFunction,Copper,L2,Bot*%
%TF.FilePolarity,Positive*%
%FSLAX46Y46*%
G04 Gerber Fmt 4.6, Leading zero omitted, Abs format (unit mm)*
G04 Created by KiCad (PCBNEW (6.0.4-0)) date 2022-04-22 16:48:50*
%MOMM*%
%LPD*%
G01*
G04 APERTURE LIST*
%TA.AperFunction,ComponentPad*%
%ADD10R,1.700000X1.700000*%
%TD*%
%TA.AperFunction,ComponentPad*%
%ADD11O,1.700000X1.700000*%
%TD*%
%TA.AperFunction,ViaPad*%
%ADD12C,0.800000*%
%TD*%
%TA.AperFunction,Conductor*%
%ADD13C,0.457200*%
%TD*%
%TA.AperFunction,Conductor*%
%ADD14C,0.330200*%
%TD*%
%TA.AperFunction,Conductor*%
%ADD15C,0.250000*%
%TD*%
G04 APERTURE END LIST*
D10*
%TO.P,J3,1,Pin_1*%
%TO.N,3.3V*%
X44221000Y-72136000D03*
D11*
%TO.P,J3,2,Pin_2*%
%TO.N,GND*%
X44221000Y-74676000D03*
%TO.P,J3,3,Pin_3*%
%TO.N,IO9*%
X44221000Y-77216000D03*
%TO.P,J3,4,Pin_4*%
%TO.N,IO8*%
X44221000Y-79756000D03*
%TO.P,J3,5,Pin_5*%
%TO.N,IO2*%
X44221000Y-82296000D03*
%TD*%
D10*
%TO.P,J2,1,Pin_1*%
%TO.N,3.3V*%
X54508000Y-93193000D03*
D11*
%TO.P,J2,2,Pin_2*%
%TO.N,GND*%
X57048000Y-93193000D03*
%TO.P,J2,3,Pin_3*%
%TO.N,EN*%
X59588000Y-93193000D03*
%TO.P,J2,4,Pin_4*%
%TO.N,IO0*%
X62128000Y-93193000D03*
%TO.P,J2,5,Pin_5*%
%TO.N,TXD*%
X64668000Y-93193000D03*
%TO.P,J2,6,Pin_6*%
%TO.N,RXD*%
X67208000Y-93193000D03*
%TD*%
D12*
%TO.N,3.3V*%
X51060000Y-74390000D03*
X73101200Y-90652600D03*
X51100131Y-77161155D03*
X54507994Y-87935206D03*
%TO.N,GND*%
X51950000Y-78700000D03*
X52450000Y-76310000D03*
X52908200Y-87985600D03*
X71221600Y-90703400D03*
X73736200Y-80670400D03*
X73431400Y-74117200D03*
X48215383Y-85391184D03*
X46990000Y-76270000D03*
%TO.N,EN*%
X58420000Y-86106000D03*
%TO.N,IO0*%
X69824600Y-71120000D03*
%TO.N,IO2*%
X67538600Y-74041000D03*
%TD*%
D13*
%TO.N,3.3V*%
X73101200Y-90652600D02*
X69088000Y-94665800D01*
X51080000Y-77141024D02*
X51100131Y-77161155D01*
X55980800Y-94665800D02*
X54508000Y-93193000D01*
X54507994Y-85090406D02*
X54507994Y-87935206D01*
X54507994Y-83160006D02*
X54507994Y-85090406D01*
X51060000Y-74390000D02*
X51080000Y-74410000D01*
X51100126Y-77161161D02*
X51100126Y-79752139D01*
X51080000Y-74410000D02*
X51080000Y-77141024D01*
X54507994Y-87935206D02*
X54507994Y-93193006D01*
X69088000Y-94665800D02*
X55980800Y-94665800D01*
X51100126Y-79752139D02*
X54507994Y-83160006D01*
D14*
%TO.N,EN*%
X59587994Y-87273994D02*
X58420000Y-86106000D01*
X59587994Y-93193006D02*
X59587994Y-87273994D01*
%TO.N,IO0*%
X62127994Y-93193006D02*
X62127994Y-83769606D01*
X69799200Y-76098400D02*
X69799200Y-71145400D01*
X62127994Y-83769606D02*
X69799200Y-76098400D01*
D15*
X69799200Y-71145400D02*
X69824600Y-71120000D01*
D14*
%TO.N,IO2*%
X46694000Y-82296000D02*
X44220994Y-82296000D01*
X50749200Y-73431400D02*
X49660000Y-74520600D01*
X49660000Y-79330000D02*
X46694000Y-82296000D01*
X66929000Y-73431400D02*
X50749200Y-73431400D01*
X67538600Y-74041000D02*
X66929000Y-73431400D01*
X49660000Y-74520600D02*
X49660000Y-79330000D01*
%TD*%
%TA.AperFunction,Conductor*%
%TO.N,GND*%
G36*
X78800621Y-69629702D02*
G01*
X78847114Y-69683358D01*
X78858500Y-69735700D01*
X78858500Y-95855500D01*
X78838498Y-95923621D01*
X78784842Y-95970114D01*
X78732500Y-95981500D01*
X41647500Y-95981500D01*
X41579379Y-95961498D01*
X41532886Y-95907842D01*
X41521500Y-95855500D01*
X41521500Y-82262695D01*
X42858251Y-82262695D01*
X42871110Y-82485715D01*
X42872247Y-82490761D01*
X42872248Y-82490767D01*
X42896304Y-82597508D01*
X42920222Y-82703639D01*
X42981673Y-82854976D01*
X42998872Y-82897331D01*
X43004266Y-82910616D01*
X43035898Y-82962235D01*
X43113942Y-83089591D01*
X43120987Y-83101088D01*
X43267250Y-83269938D01*
X43439126Y-83412632D01*
X43632000Y-83525338D01*
X43840692Y-83605030D01*
X43845760Y-83606061D01*
X43845763Y-83606062D01*
X43953017Y-83627883D01*
X44059597Y-83649567D01*
X44064772Y-83649757D01*
X44064774Y-83649757D01*
X44277673Y-83657564D01*
X44277677Y-83657564D01*
X44282837Y-83657753D01*
X44287957Y-83657097D01*
X44287959Y-83657097D01*
X44499288Y-83630025D01*
X44499289Y-83630025D01*
X44504416Y-83629368D01*
X44574339Y-83608390D01*
X44713429Y-83566661D01*
X44713434Y-83566659D01*
X44718384Y-83565174D01*
X44918994Y-83466896D01*
X45100860Y-83337173D01*
X45259096Y-83179489D01*
X45298496Y-83124658D01*
X45372210Y-83022074D01*
X45428205Y-82978426D01*
X45474533Y-82969600D01*
X46666291Y-82969600D01*
X46674862Y-82969892D01*
X46729512Y-82973618D01*
X46789235Y-82963194D01*
X46795725Y-82962237D01*
X46855856Y-82954960D01*
X46862965Y-82952274D01*
X46868762Y-82950850D01*
X46876917Y-82948620D01*
X46882641Y-82946892D01*
X46890122Y-82945586D01*
X46945594Y-82921235D01*
X46951699Y-82918744D01*
X46952422Y-82918471D01*
X46973210Y-82910616D01*
X47001263Y-82900016D01*
X47001265Y-82900015D01*
X47008368Y-82897331D01*
X47014627Y-82893030D01*
X47019894Y-82890276D01*
X47027319Y-82886143D01*
X47032451Y-82883108D01*
X47039408Y-82880054D01*
X47045434Y-82875430D01*
X47045436Y-82875429D01*
X47087466Y-82843178D01*
X47092804Y-82839300D01*
X47136469Y-82809291D01*
X47136476Y-82809285D01*
X47142731Y-82804986D01*
X47182019Y-82760890D01*
X47187001Y-82755614D01*
X50116717Y-79825898D01*
X50122967Y-79820058D01*
X50161815Y-79786169D01*
X50226293Y-79756463D01*
X50296601Y-79766332D01*
X50350411Y-79812646D01*
X50370226Y-79870903D01*
X50372394Y-79897554D01*
X50374649Y-79904516D01*
X50375760Y-79910074D01*
X50377064Y-79915591D01*
X50377912Y-79922863D01*
X50380411Y-79929747D01*
X50380412Y-79929752D01*
X50402100Y-79989501D01*
X50403526Y-79993655D01*
X50425365Y-80061068D01*
X50429161Y-80067324D01*
X50431513Y-80072462D01*
X50434060Y-80077547D01*
X50436558Y-80084429D01*
X50475433Y-80143724D01*
X50477756Y-80147406D01*
X50484547Y-80158596D01*
X50514533Y-80208011D01*
X50518240Y-80212208D01*
X50518241Y-80212210D01*
X50521727Y-80216157D01*
X50521708Y-80216174D01*
X50524615Y-80219451D01*
X50526782Y-80222043D01*
X50530799Y-80228170D01*
X50536115Y-80233205D01*
X50536115Y-80233206D01*
X50585399Y-80279893D01*
X50587841Y-80282271D01*
X53733989Y-83428418D01*
X53768015Y-83490730D01*
X53770894Y-83517513D01*
X53770894Y-87361141D01*
X53754013Y-87424140D01*
X53673467Y-87563650D01*
X53614452Y-87745278D01*
X53594490Y-87935206D01*
X53614452Y-88125134D01*
X53673467Y-88306762D01*
X53676770Y-88312484D01*
X53676771Y-88312485D01*
X53754013Y-88446271D01*
X53770894Y-88509271D01*
X53770894Y-91708500D01*
X53750892Y-91776621D01*
X53697236Y-91823114D01*
X53644894Y-91834500D01*
X53609866Y-91834500D01*
X53547684Y-91841255D01*
X53411295Y-91892385D01*
X53294739Y-91979739D01*
X53207385Y-92096295D01*
X53156255Y-92232684D01*
X53149500Y-92294866D01*
X53149500Y-94091134D01*
X53156255Y-94153316D01*
X53207385Y-94289705D01*
X53294739Y-94406261D01*
X53411295Y-94493615D01*
X53547684Y-94544745D01*
X53609866Y-94551500D01*
X54771893Y-94551500D01*
X54840014Y-94571502D01*
X54860988Y-94588405D01*
X55413314Y-95140731D01*
X55425701Y-95155144D01*
X55433707Y-95166024D01*
X55433711Y-95166028D01*
X55438049Y-95171923D01*
X55448177Y-95180527D01*
X55477075Y-95205078D01*
X55484591Y-95212008D01*
X55490026Y-95217443D01*
X55511648Y-95234549D01*
X55515013Y-95237308D01*
X55569040Y-95283208D01*
X55575562Y-95286538D01*
X55580291Y-95289692D01*
X55585095Y-95292660D01*
X55590838Y-95297203D01*
X55597467Y-95300301D01*
X55597470Y-95300303D01*
X55655069Y-95327222D01*
X55659022Y-95329155D01*
X55715598Y-95358045D01*
X55715600Y-95358046D01*
X55722118Y-95361374D01*
X55729227Y-95363114D01*
X55734541Y-95365090D01*
X55739924Y-95366881D01*
X55746551Y-95369978D01*
X55753708Y-95371467D01*
X55753712Y-95371468D01*
X55815971Y-95384418D01*
X55820258Y-95385389D01*
X55850746Y-95392849D01*
X55889073Y-95402227D01*
X55894680Y-95402575D01*
X55894681Y-95402575D01*
X55899920Y-95402900D01*
X55899918Y-95402925D01*
X55904265Y-95403186D01*
X55907663Y-95403489D01*
X55914830Y-95404980D01*
X55990003Y-95402946D01*
X55993411Y-95402900D01*
X69022555Y-95402900D01*
X69041505Y-95404333D01*
X69054866Y-95406366D01*
X69054870Y-95406366D01*
X69062100Y-95407466D01*
X69069392Y-95406873D01*
X69069396Y-95406873D01*
X69113137Y-95403315D01*
X69123351Y-95402900D01*
X69131041Y-95402900D01*
X69134675Y-95402476D01*
X69134681Y-95402476D01*
X69148274Y-95400891D01*
X69158411Y-95399709D01*
X69162764Y-95399279D01*
X69179616Y-95397908D01*
X69226116Y-95394126D01*
X69226119Y-95394125D01*
X69233415Y-95393532D01*
X69240377Y-95391276D01*
X69245935Y-95390166D01*
X69251452Y-95388862D01*
X69258724Y-95388014D01*
X69265608Y-95385515D01*
X69265613Y-95385514D01*
X69325362Y-95363826D01*
X69329523Y-95362397D01*
X69332681Y-95361374D01*
X69396929Y-95340561D01*
X69403185Y-95336765D01*
X69408323Y-95334413D01*
X69413408Y-95331866D01*
X69420290Y-95329368D01*
X69479585Y-95290493D01*
X69483267Y-95288170D01*
X69539082Y-95254300D01*
X69539084Y-95254298D01*
X69543872Y-95251393D01*
X69552018Y-95244199D01*
X69552035Y-95244218D01*
X69555312Y-95241311D01*
X69557904Y-95239144D01*
X69564031Y-95235127D01*
X69615755Y-95180526D01*
X69618132Y-95178085D01*
X73219098Y-91577119D01*
X73281996Y-91542967D01*
X73321405Y-91534590D01*
X73383488Y-91521394D01*
X73389519Y-91518709D01*
X73551922Y-91446403D01*
X73551924Y-91446402D01*
X73557952Y-91443718D01*
X73712453Y-91331466D01*
X73840240Y-91189544D01*
X73935727Y-91024156D01*
X73994742Y-90842528D01*
X74014704Y-90652600D01*
X73994742Y-90462672D01*
X73935727Y-90281044D01*
X73840240Y-90115656D01*
X73712453Y-89973734D01*
X73557952Y-89861482D01*
X73551924Y-89858798D01*
X73551922Y-89858797D01*
X73389519Y-89786491D01*
X73389518Y-89786491D01*
X73383488Y-89783806D01*
X73290087Y-89763953D01*
X73203144Y-89745472D01*
X73203139Y-89745472D01*
X73196687Y-89744100D01*
X73005713Y-89744100D01*
X72999261Y-89745472D01*
X72999256Y-89745472D01*
X72912313Y-89763953D01*
X72818912Y-89783806D01*
X72812882Y-89786491D01*
X72812881Y-89786491D01*
X72650478Y-89858797D01*
X72650476Y-89858798D01*
X72644448Y-89861482D01*
X72489947Y-89973734D01*
X72362160Y-90115656D01*
X72266673Y-90281044D01*
X72207658Y-90462672D01*
X72206968Y-90469235D01*
X72205594Y-90475700D01*
X72202986Y-90475146D01*
X72180485Y-90529832D01*
X72171285Y-90540098D01*
X68819588Y-93891795D01*
X68757276Y-93925821D01*
X68730493Y-93928700D01*
X68562657Y-93928700D01*
X68494536Y-93908698D01*
X68448043Y-93855042D01*
X68437939Y-93784768D01*
X68449699Y-93746874D01*
X68473138Y-93699448D01*
X68475430Y-93694811D01*
X68540370Y-93481069D01*
X68569529Y-93259590D01*
X68571156Y-93193000D01*
X68552852Y-92970361D01*
X68498431Y-92753702D01*
X68409354Y-92548840D01*
X68288014Y-92361277D01*
X68137670Y-92196051D01*
X68133619Y-92192852D01*
X68133615Y-92192848D01*
X67966414Y-92060800D01*
X67966410Y-92060798D01*
X67962359Y-92057598D01*
X67926028Y-92037542D01*
X67855337Y-91998519D01*
X67766789Y-91949638D01*
X67761920Y-91947914D01*
X67761916Y-91947912D01*
X67561087Y-91876795D01*
X67561083Y-91876794D01*
X67556212Y-91875069D01*
X67551119Y-91874162D01*
X67551116Y-91874161D01*
X67341373Y-91836800D01*
X67341367Y-91836799D01*
X67336284Y-91835894D01*
X67262452Y-91834992D01*
X67118081Y-91833228D01*
X67118079Y-91833228D01*
X67112911Y-91833165D01*
X66892091Y-91866955D01*
X66679756Y-91936357D01*
X66606757Y-91974358D01*
X66532500Y-92013014D01*
X66481607Y-92039507D01*
X66477474Y-92042610D01*
X66477471Y-92042612D01*
X66307100Y-92170530D01*
X66302965Y-92173635D01*
X66148629Y-92335138D01*
X66041201Y-92492621D01*
X65986293Y-92537621D01*
X65915768Y-92545792D01*
X65852021Y-92514538D01*
X65831324Y-92490054D01*
X65750822Y-92365617D01*
X65750820Y-92365614D01*
X65748014Y-92361277D01*
X65597670Y-92196051D01*
X65593619Y-92192852D01*
X65593615Y-92192848D01*
X65426414Y-92060800D01*
X65426410Y-92060798D01*
X65422359Y-92057598D01*
X65386028Y-92037542D01*
X65315337Y-91998519D01*
X65226789Y-91949638D01*
X65221920Y-91947914D01*
X65221916Y-91947912D01*
X65021087Y-91876795D01*
X65021083Y-91876794D01*
X65016212Y-91875069D01*
X65011119Y-91874162D01*
X65011116Y-91874161D01*
X64801373Y-91836800D01*
X64801367Y-91836799D01*
X64796284Y-91835894D01*
X64722452Y-91834992D01*
X64578081Y-91833228D01*
X64578079Y-91833228D01*
X64572911Y-91833165D01*
X64352091Y-91866955D01*
X64139756Y-91936357D01*
X64066757Y-91974358D01*
X63992500Y-92013014D01*
X63941607Y-92039507D01*
X63937474Y-92042610D01*
X63937471Y-92042612D01*
X63767100Y-92170530D01*
X63762965Y-92173635D01*
X63608629Y-92335138D01*
X63501201Y-92492621D01*
X63446293Y-92537621D01*
X63375768Y-92545792D01*
X63312021Y-92514538D01*
X63291324Y-92490054D01*
X63210822Y-92365617D01*
X63210820Y-92365614D01*
X63208014Y-92361277D01*
X63057670Y-92196051D01*
X63053619Y-92192852D01*
X63053615Y-92192848D01*
X62886414Y-92060800D01*
X62886410Y-92060798D01*
X62882359Y-92057598D01*
X62877836Y-92055101D01*
X62866699Y-92048953D01*
X62816729Y-91998519D01*
X62801594Y-91938645D01*
X62801594Y-84100811D01*
X62821596Y-84032690D01*
X62838499Y-84011716D01*
X70255909Y-76594305D01*
X70262175Y-76588451D01*
X70297734Y-76557431D01*
X70303459Y-76552437D01*
X70338306Y-76502855D01*
X70342238Y-76497561D01*
X70374915Y-76455886D01*
X70379605Y-76449905D01*
X70382733Y-76442976D01*
X70385837Y-76437852D01*
X70390032Y-76430498D01*
X70392842Y-76425258D01*
X70397206Y-76419048D01*
X70399963Y-76411977D01*
X70399965Y-76411973D01*
X70419208Y-76362615D01*
X70421764Y-76356533D01*
X70443571Y-76308237D01*
X70443572Y-76308235D01*
X70446697Y-76301313D01*
X70448081Y-76293844D01*
X70449872Y-76288129D01*
X70452178Y-76280036D01*
X70453670Y-76274224D01*
X70456429Y-76267148D01*
X70464337Y-76207078D01*
X70465368Y-76200571D01*
X70475024Y-76148473D01*
X70476408Y-76141006D01*
X70473009Y-76082056D01*
X70472800Y-76074804D01*
X70472800Y-71806198D01*
X70492802Y-71738077D01*
X70505158Y-71721895D01*
X70563640Y-71656944D01*
X70659127Y-71491556D01*
X70718142Y-71309928D01*
X70732252Y-71175684D01*
X70737414Y-71126565D01*
X70738104Y-71120000D01*
X70718142Y-70930072D01*
X70659127Y-70748444D01*
X70563640Y-70583056D01*
X70435853Y-70441134D01*
X70281352Y-70328882D01*
X70275324Y-70326198D01*
X70275322Y-70326197D01*
X70112919Y-70253891D01*
X70112918Y-70253891D01*
X70106888Y-70251206D01*
X70013488Y-70231353D01*
X69926544Y-70212872D01*
X69926539Y-70212872D01*
X69920087Y-70211500D01*
X69729113Y-70211500D01*
X69722661Y-70212872D01*
X69722656Y-70212872D01*
X69635712Y-70231353D01*
X69542312Y-70251206D01*
X69536282Y-70253891D01*
X69536281Y-70253891D01*
X69373878Y-70326197D01*
X69373876Y-70326198D01*
X69367848Y-70328882D01*
X69213347Y-70441134D01*
X69085560Y-70583056D01*
X68990073Y-70748444D01*
X68931058Y-70930072D01*
X68911096Y-71120000D01*
X68911786Y-71126565D01*
X68916949Y-71175684D01*
X68931058Y-71309928D01*
X68990073Y-71491556D01*
X69085560Y-71656944D01*
X69093237Y-71665470D01*
X69123953Y-71729476D01*
X69125600Y-71749779D01*
X69125600Y-75767196D01*
X69105598Y-75835317D01*
X69088695Y-75856291D01*
X61671285Y-83273701D01*
X61665020Y-83279554D01*
X61623735Y-83315569D01*
X61588886Y-83365154D01*
X61584975Y-83370420D01*
X61547589Y-83418100D01*
X61544463Y-83425023D01*
X61541346Y-83430170D01*
X61537201Y-83437438D01*
X61534358Y-83442740D01*
X61529988Y-83448958D01*
X61513702Y-83490730D01*
X61507981Y-83505403D01*
X61505426Y-83511481D01*
X61480497Y-83566693D01*
X61479113Y-83574163D01*
X61477326Y-83579865D01*
X61475019Y-83587962D01*
X61473525Y-83593779D01*
X61470765Y-83600858D01*
X61469774Y-83608387D01*
X61469773Y-83608390D01*
X61462857Y-83660924D01*
X61461827Y-83667426D01*
X61450786Y-83726999D01*
X61451223Y-83734579D01*
X61451223Y-83734580D01*
X61454185Y-83785949D01*
X61454394Y-83793202D01*
X61454394Y-91937210D01*
X61434392Y-92005331D01*
X61400880Y-92038539D01*
X61401607Y-92039507D01*
X61222965Y-92173635D01*
X61068629Y-92335138D01*
X60961201Y-92492621D01*
X60906293Y-92537621D01*
X60835768Y-92545792D01*
X60772021Y-92514538D01*
X60751324Y-92490054D01*
X60670822Y-92365617D01*
X60670820Y-92365614D01*
X60668014Y-92361277D01*
X60517670Y-92196051D01*
X60513619Y-92192852D01*
X60513615Y-92192848D01*
X60346414Y-92060800D01*
X60346410Y-92060798D01*
X60342359Y-92057598D01*
X60337836Y-92055101D01*
X60326699Y-92048953D01*
X60276729Y-91998519D01*
X60261594Y-91938645D01*
X60261594Y-87301703D01*
X60261886Y-87293132D01*
X60265095Y-87246058D01*
X60265612Y-87238482D01*
X60255190Y-87178769D01*
X60254228Y-87172247D01*
X60247867Y-87119686D01*
X60246954Y-87112138D01*
X60244266Y-87105026D01*
X60242827Y-87099165D01*
X60240615Y-87091079D01*
X60238887Y-87085355D01*
X60237581Y-87077872D01*
X60213211Y-87022358D01*
X60210745Y-87016315D01*
X60189325Y-86959626D01*
X60185021Y-86953364D01*
X60182258Y-86948079D01*
X60178158Y-86940711D01*
X60175103Y-86935545D01*
X60172048Y-86928586D01*
X60135169Y-86880524D01*
X60131294Y-86875190D01*
X60101285Y-86831525D01*
X60101279Y-86831518D01*
X60096980Y-86825263D01*
X60052884Y-86785975D01*
X60047608Y-86780993D01*
X59360462Y-86093847D01*
X59326436Y-86031535D01*
X59324247Y-86017923D01*
X59314232Y-85922636D01*
X59314232Y-85922635D01*
X59313542Y-85916072D01*
X59254527Y-85734444D01*
X59159040Y-85569056D01*
X59031253Y-85427134D01*
X58876752Y-85314882D01*
X58870724Y-85312198D01*
X58870722Y-85312197D01*
X58708319Y-85239891D01*
X58708318Y-85239891D01*
X58702288Y-85237206D01*
X58608888Y-85217353D01*
X58521944Y-85198872D01*
X58521939Y-85198872D01*
X58515487Y-85197500D01*
X58324513Y-85197500D01*
X58318061Y-85198872D01*
X58318056Y-85198872D01*
X58231112Y-85217353D01*
X58137712Y-85237206D01*
X58131682Y-85239891D01*
X58131681Y-85239891D01*
X57969278Y-85312197D01*
X57969276Y-85312198D01*
X57963248Y-85314882D01*
X57808747Y-85427134D01*
X57680960Y-85569056D01*
X57585473Y-85734444D01*
X57526458Y-85916072D01*
X57506496Y-86106000D01*
X57526458Y-86295928D01*
X57585473Y-86477556D01*
X57680960Y-86642944D01*
X57808747Y-86784866D01*
X57963248Y-86897118D01*
X57969276Y-86899802D01*
X57969278Y-86899803D01*
X58103644Y-86959626D01*
X58137712Y-86974794D01*
X58255487Y-86999828D01*
X58318057Y-87013128D01*
X58318060Y-87013128D01*
X58324513Y-87014500D01*
X58331114Y-87014500D01*
X58336767Y-87015094D01*
X58402424Y-87042107D01*
X58412693Y-87051308D01*
X58877489Y-87516103D01*
X58911514Y-87578416D01*
X58914394Y-87605199D01*
X58914394Y-91937210D01*
X58894392Y-92005331D01*
X58860880Y-92038539D01*
X58861607Y-92039507D01*
X58682965Y-92173635D01*
X58528629Y-92335138D01*
X58421204Y-92492618D01*
X58420898Y-92493066D01*
X58365987Y-92538069D01*
X58295462Y-92546240D01*
X58231715Y-92514986D01*
X58211018Y-92490502D01*
X58130426Y-92365926D01*
X58124136Y-92357757D01*
X57980806Y-92200240D01*
X57973273Y-92193215D01*
X57806139Y-92061222D01*
X57797552Y-92055517D01*
X57611117Y-91952599D01*
X57601705Y-91948369D01*
X57400959Y-91877280D01*
X57390988Y-91874646D01*
X57319837Y-91861972D01*
X57306540Y-91863432D01*
X57302000Y-91877989D01*
X57302000Y-93321000D01*
X57281998Y-93389121D01*
X57228342Y-93435614D01*
X57176000Y-93447000D01*
X56920000Y-93447000D01*
X56851879Y-93426998D01*
X56805386Y-93373342D01*
X56794000Y-93321000D01*
X56794000Y-91876102D01*
X56790082Y-91862758D01*
X56775806Y-91860771D01*
X56737324Y-91866660D01*
X56727288Y-91869051D01*
X56524868Y-91935212D01*
X56515359Y-91939209D01*
X56326463Y-92037542D01*
X56317738Y-92043036D01*
X56147433Y-92170905D01*
X56139726Y-92177748D01*
X56062478Y-92258584D01*
X56000954Y-92294014D01*
X55930042Y-92290557D01*
X55872255Y-92249311D01*
X55853402Y-92215763D01*
X55811767Y-92104703D01*
X55808615Y-92096295D01*
X55721261Y-91979739D01*
X55604705Y-91892385D01*
X55468316Y-91841255D01*
X55406134Y-91834500D01*
X55371094Y-91834500D01*
X55302973Y-91814498D01*
X55256480Y-91760842D01*
X55245094Y-91708500D01*
X55245094Y-88509271D01*
X55261975Y-88446271D01*
X55339217Y-88312485D01*
X55339218Y-88312484D01*
X55342521Y-88306762D01*
X55401536Y-88125134D01*
X55421498Y-87935206D01*
X55401536Y-87745278D01*
X55342521Y-87563650D01*
X55261975Y-87424140D01*
X55245094Y-87361141D01*
X55245094Y-83225450D01*
X55246527Y-83206499D01*
X55248560Y-83193138D01*
X55248560Y-83193135D01*
X55249660Y-83185905D01*
X55245509Y-83134873D01*
X55245094Y-83124658D01*
X55245094Y-83116965D01*
X55242730Y-83096689D01*
X55241903Y-83089591D01*
X55241470Y-83085217D01*
X55236318Y-83021883D01*
X55235725Y-83014590D01*
X55233471Y-83007632D01*
X55232355Y-83002044D01*
X55231055Y-82996545D01*
X55230208Y-82989282D01*
X55227713Y-82982409D01*
X55227711Y-82982400D01*
X55206016Y-82922633D01*
X55204608Y-82918534D01*
X55182755Y-82851076D01*
X55178957Y-82844817D01*
X55176599Y-82839666D01*
X55174058Y-82834593D01*
X55171562Y-82827716D01*
X55159482Y-82809291D01*
X55132702Y-82768444D01*
X55130355Y-82764725D01*
X55096496Y-82708928D01*
X55093587Y-82704134D01*
X55089878Y-82699935D01*
X55089875Y-82699930D01*
X55086393Y-82695988D01*
X55086412Y-82695971D01*
X55083505Y-82692694D01*
X55081338Y-82690102D01*
X55077321Y-82683975D01*
X55022720Y-82632251D01*
X55020279Y-82629874D01*
X53477769Y-81087364D01*
X51874131Y-79483727D01*
X51840105Y-79421415D01*
X51837226Y-79394632D01*
X51837226Y-77735229D01*
X51854107Y-77672229D01*
X51931354Y-77538434D01*
X51931355Y-77538433D01*
X51934658Y-77532711D01*
X51993673Y-77351083D01*
X52013635Y-77161155D01*
X51996542Y-76998522D01*
X51994363Y-76977790D01*
X51994363Y-76977788D01*
X51993673Y-76971227D01*
X51934658Y-76789599D01*
X51839171Y-76624211D01*
X51839776Y-76623862D01*
X51817100Y-76554067D01*
X51817100Y-74929424D01*
X51833981Y-74866424D01*
X51891223Y-74767279D01*
X51891224Y-74767278D01*
X51894527Y-74761556D01*
X51953542Y-74579928D01*
X51973504Y-74390000D01*
X51958177Y-74244170D01*
X51970949Y-74174332D01*
X52019451Y-74122485D01*
X52083487Y-74105000D01*
X66518371Y-74105000D01*
X66586492Y-74125002D01*
X66632985Y-74178658D01*
X66643680Y-74217826D01*
X66644367Y-74224358D01*
X66645058Y-74230928D01*
X66704073Y-74412556D01*
X66707376Y-74418278D01*
X66707377Y-74418279D01*
X66737543Y-74470527D01*
X66799560Y-74577944D01*
X66927347Y-74719866D01*
X67081848Y-74832118D01*
X67087876Y-74834802D01*
X67087878Y-74834803D01*
X67224573Y-74895663D01*
X67256312Y-74909794D01*
X67348663Y-74929424D01*
X67436656Y-74948128D01*
X67436661Y-74948128D01*
X67443113Y-74949500D01*
X67634087Y-74949500D01*
X67640539Y-74948128D01*
X67640544Y-74948128D01*
X67728537Y-74929424D01*
X67820888Y-74909794D01*
X67852627Y-74895663D01*
X67989322Y-74834803D01*
X67989324Y-74834802D01*
X67995352Y-74832118D01*
X68149853Y-74719866D01*
X68277640Y-74577944D01*
X68339657Y-74470527D01*
X68369823Y-74418279D01*
X68369824Y-74418278D01*
X68373127Y-74412556D01*
X68432142Y-74230928D01*
X68435311Y-74200783D01*
X68451414Y-74047565D01*
X68452104Y-74041000D01*
X68432142Y-73851072D01*
X68373127Y-73669444D01*
X68277640Y-73504056D01*
X68255886Y-73479895D01*
X68154275Y-73367045D01*
X68154274Y-73367044D01*
X68149853Y-73362134D01*
X67995352Y-73249882D01*
X67989324Y-73247198D01*
X67989322Y-73247197D01*
X67826919Y-73174891D01*
X67826918Y-73174891D01*
X67820888Y-73172206D01*
X67703113Y-73147172D01*
X67640543Y-73133872D01*
X67640540Y-73133872D01*
X67634087Y-73132500D01*
X67627485Y-73132500D01*
X67621832Y-73131906D01*
X67556174Y-73104894D01*
X67545905Y-73095691D01*
X67424905Y-72974691D01*
X67419051Y-72968425D01*
X67388033Y-72932868D01*
X67383037Y-72927141D01*
X67333452Y-72892292D01*
X67328177Y-72888374D01*
X67325446Y-72886232D01*
X67280506Y-72850995D01*
X67273583Y-72847869D01*
X67268436Y-72844752D01*
X67261168Y-72840607D01*
X67255866Y-72837764D01*
X67249648Y-72833394D01*
X67193201Y-72811386D01*
X67187123Y-72808831D01*
X67138837Y-72787029D01*
X67138835Y-72787028D01*
X67131913Y-72783903D01*
X67124443Y-72782519D01*
X67118741Y-72780732D01*
X67110644Y-72778425D01*
X67104827Y-72776931D01*
X67097748Y-72774171D01*
X67090219Y-72773180D01*
X67090216Y-72773179D01*
X67052387Y-72768199D01*
X67037677Y-72766262D01*
X67031180Y-72765233D01*
X66971607Y-72754192D01*
X66964027Y-72754629D01*
X66964026Y-72754629D01*
X66912657Y-72757591D01*
X66905404Y-72757800D01*
X50776898Y-72757800D01*
X50768328Y-72757508D01*
X50721263Y-72754299D01*
X50721259Y-72754299D01*
X50713687Y-72753783D01*
X50653986Y-72764203D01*
X50647474Y-72765163D01*
X50641941Y-72765833D01*
X50594887Y-72771527D01*
X50594885Y-72771527D01*
X50587344Y-72772440D01*
X50580241Y-72775124D01*
X50574446Y-72776547D01*
X50566296Y-72778777D01*
X50560565Y-72780507D01*
X50553078Y-72781814D01*
X50546123Y-72784867D01*
X50497604Y-72806165D01*
X50491497Y-72808657D01*
X50441935Y-72827385D01*
X50434832Y-72830069D01*
X50428573Y-72834371D01*
X50423251Y-72837153D01*
X50415917Y-72841235D01*
X50410749Y-72844292D01*
X50403791Y-72847346D01*
X50355720Y-72884233D01*
X50350411Y-72888090D01*
X50300469Y-72922414D01*
X50295419Y-72928082D01*
X50295418Y-72928083D01*
X50261173Y-72966519D01*
X50256191Y-72971795D01*
X49203291Y-74024695D01*
X49197026Y-74030548D01*
X49155741Y-74066563D01*
X49120892Y-74116148D01*
X49116981Y-74121414D01*
X49079595Y-74169094D01*
X49076469Y-74176017D01*
X49073352Y-74181164D01*
X49069207Y-74188432D01*
X49066364Y-74193734D01*
X49061994Y-74199952D01*
X49052476Y-74224365D01*
X49039987Y-74256397D01*
X49037432Y-74262475D01*
X49012503Y-74317687D01*
X49011119Y-74325157D01*
X49009332Y-74330859D01*
X49007025Y-74338956D01*
X49005531Y-74344773D01*
X49002771Y-74351852D01*
X49001780Y-74359381D01*
X49001779Y-74359384D01*
X48994863Y-74411918D01*
X48993833Y-74418420D01*
X48982792Y-74477993D01*
X48983229Y-74485573D01*
X48983229Y-74485574D01*
X48986191Y-74536943D01*
X48986400Y-74544196D01*
X48986400Y-78998796D01*
X48966398Y-79066917D01*
X48949495Y-79087891D01*
X46451891Y-81585495D01*
X46389579Y-81619521D01*
X46362796Y-81622400D01*
X45471863Y-81622400D01*
X45403742Y-81602398D01*
X45366071Y-81564840D01*
X45303822Y-81468617D01*
X45303820Y-81468614D01*
X45301014Y-81464277D01*
X45150670Y-81299051D01*
X45146619Y-81295852D01*
X45146615Y-81295848D01*
X44979414Y-81163800D01*
X44979410Y-81163798D01*
X44975359Y-81160598D01*
X44934053Y-81137796D01*
X44884084Y-81087364D01*
X44869312Y-81017921D01*
X44894428Y-80951516D01*
X44921780Y-80924909D01*
X44965603Y-80893650D01*
X45100860Y-80797173D01*
X45259096Y-80639489D01*
X45318594Y-80556689D01*
X45386435Y-80462277D01*
X45389453Y-80458077D01*
X45477517Y-80279893D01*
X45486136Y-80262453D01*
X45486137Y-80262451D01*
X45488430Y-80257811D01*
X45553370Y-80044069D01*
X45582529Y-79822590D01*
X45584156Y-79756000D01*
X45565852Y-79533361D01*
X45511431Y-79316702D01*
X45422354Y-79111840D01*
X45301014Y-78924277D01*
X45150670Y-78759051D01*
X45146619Y-78755852D01*
X45146615Y-78755848D01*
X44979414Y-78623800D01*
X44979410Y-78623798D01*
X44975359Y-78620598D01*
X44934053Y-78597796D01*
X44884084Y-78547364D01*
X44869312Y-78477921D01*
X44894428Y-78411516D01*
X44921780Y-78384909D01*
X44965603Y-78353650D01*
X45100860Y-78257173D01*
X45259096Y-78099489D01*
X45318594Y-78016689D01*
X45386435Y-77922277D01*
X45389453Y-77918077D01*
X45488430Y-77717811D01*
X45544668Y-77532711D01*
X45551865Y-77509023D01*
X45551865Y-77509021D01*
X45553370Y-77504069D01*
X45582529Y-77282590D01*
X45584156Y-77216000D01*
X45565852Y-76993361D01*
X45511431Y-76776702D01*
X45422354Y-76571840D01*
X45330916Y-76430498D01*
X45303822Y-76388617D01*
X45303820Y-76388614D01*
X45301014Y-76384277D01*
X45150670Y-76219051D01*
X45146619Y-76215852D01*
X45146615Y-76215848D01*
X44979414Y-76083800D01*
X44979410Y-76083798D01*
X44975359Y-76080598D01*
X44933569Y-76057529D01*
X44883598Y-76007097D01*
X44868826Y-75937654D01*
X44893942Y-75871248D01*
X44921294Y-75844641D01*
X45096328Y-75719792D01*
X45104200Y-75713139D01*
X45255052Y-75562812D01*
X45261730Y-75554965D01*
X45386003Y-75382020D01*
X45391313Y-75373183D01*
X45485670Y-75182267D01*
X45489469Y-75172672D01*
X45551377Y-74968910D01*
X45553555Y-74958837D01*
X45554986Y-74947962D01*
X45552775Y-74933778D01*
X45539617Y-74930000D01*
X42904225Y-74930000D01*
X42890694Y-74933973D01*
X42889257Y-74943966D01*
X42919565Y-75078446D01*
X42922645Y-75088275D01*
X43002770Y-75285603D01*
X43007413Y-75294794D01*
X43118694Y-75476388D01*
X43124777Y-75484699D01*
X43264213Y-75645667D01*
X43271580Y-75652883D01*
X43435434Y-75788916D01*
X43443881Y-75794831D01*
X43512969Y-75835203D01*
X43561693Y-75886842D01*
X43574764Y-75956625D01*
X43548033Y-76022396D01*
X43507584Y-76055752D01*
X43494607Y-76062507D01*
X43490474Y-76065610D01*
X43490471Y-76065612D01*
X43320100Y-76193530D01*
X43315965Y-76196635D01*
X43312393Y-76200373D01*
X43209316Y-76308237D01*
X43161629Y-76358138D01*
X43035743Y-76542680D01*
X42941688Y-76745305D01*
X42881989Y-76960570D01*
X42858251Y-77182695D01*
X42858548Y-77187848D01*
X42858548Y-77187851D01*
X42867960Y-77351083D01*
X42871110Y-77405715D01*
X42872247Y-77410761D01*
X42872248Y-77410767D01*
X42892119Y-77498939D01*
X42920222Y-77623639D01*
X43004266Y-77830616D01*
X43120987Y-78021088D01*
X43267250Y-78189938D01*
X43439126Y-78332632D01*
X43509595Y-78373811D01*
X43512445Y-78375476D01*
X43561169Y-78427114D01*
X43574240Y-78496897D01*
X43547509Y-78562669D01*
X43507055Y-78596027D01*
X43494607Y-78602507D01*
X43490474Y-78605610D01*
X43490471Y-78605612D01*
X43466247Y-78623800D01*
X43315965Y-78736635D01*
X43161629Y-78898138D01*
X43035743Y-79082680D01*
X42941688Y-79285305D01*
X42881989Y-79500570D01*
X42858251Y-79722695D01*
X42858548Y-79727848D01*
X42858548Y-79727851D01*
X42866796Y-79870903D01*
X42871110Y-79945715D01*
X42872247Y-79950761D01*
X42872248Y-79950767D01*
X42881915Y-79993662D01*
X42920222Y-80163639D01*
X43004266Y-80370616D01*
X43120987Y-80561088D01*
X43267250Y-80729938D01*
X43439126Y-80872632D01*
X43509595Y-80913811D01*
X43512445Y-80915476D01*
X43561169Y-80967114D01*
X43574240Y-81036897D01*
X43547509Y-81102669D01*
X43507055Y-81136027D01*
X43494607Y-81142507D01*
X43490474Y-81145610D01*
X43490471Y-81145612D01*
X43466247Y-81163800D01*
X43315965Y-81276635D01*
X43161629Y-81438138D01*
X43035743Y-81622680D01*
X42941688Y-81825305D01*
X42881989Y-82040570D01*
X42858251Y-82262695D01*
X41521500Y-82262695D01*
X41521500Y-73034134D01*
X42862500Y-73034134D01*
X42869255Y-73096316D01*
X42920385Y-73232705D01*
X43007739Y-73349261D01*
X43124295Y-73436615D01*
X43132704Y-73439767D01*
X43132705Y-73439768D01*
X43241960Y-73480726D01*
X43298725Y-73523367D01*
X43323425Y-73589929D01*
X43308218Y-73659278D01*
X43288825Y-73685759D01*
X43165590Y-73814717D01*
X43159104Y-73822727D01*
X43039098Y-73998649D01*
X43034000Y-74007623D01*
X42944338Y-74200783D01*
X42940775Y-74210470D01*
X42885389Y-74410183D01*
X42886912Y-74418607D01*
X42899292Y-74422000D01*
X45539344Y-74422000D01*
X45552875Y-74418027D01*
X45554180Y-74408947D01*
X45512214Y-74241875D01*
X45508894Y-74232124D01*
X45423972Y-74036814D01*
X45419105Y-74027739D01*
X45303426Y-73848926D01*
X45297136Y-73840757D01*
X45153293Y-73682677D01*
X45122241Y-73618831D01*
X45130635Y-73548333D01*
X45175812Y-73493564D01*
X45202256Y-73479895D01*
X45309297Y-73439767D01*
X45317705Y-73436615D01*
X45434261Y-73349261D01*
X45521615Y-73232705D01*
X45572745Y-73096316D01*
X45579500Y-73034134D01*
X45579500Y-71237866D01*
X45572745Y-71175684D01*
X45521615Y-71039295D01*
X45434261Y-70922739D01*
X45317705Y-70835385D01*
X45181316Y-70784255D01*
X45119134Y-70777500D01*
X43322866Y-70777500D01*
X43260684Y-70784255D01*
X43124295Y-70835385D01*
X43007739Y-70922739D01*
X42920385Y-71039295D01*
X42869255Y-71175684D01*
X42862500Y-71237866D01*
X42862500Y-73034134D01*
X41521500Y-73034134D01*
X41521500Y-69735700D01*
X41541502Y-69667579D01*
X41595158Y-69621086D01*
X41647500Y-69609700D01*
X78732500Y-69609700D01*
X78800621Y-69629702D01*
G37*
%TD.AperFunction*%
%TD*%
M02*
